<?xml version="1.0" encoding="UTF-8" standalone="no"?>
<!DOCTYPE svg PUBLIC "-//W3C//DTD SVG 1.1//EN" "http://www.w3.org/Graphics/SVG/1.1/DTD/svg11.dtd">
<svg version="1.1" xmlns="http://www.w3.org/2000/svg" xmlns:xlink="http://www.w3.org/1999/xlink" preserveAspectRatio="xMidYMid meet" viewBox="0 0 325 325" width="325" height="325"><defs><path d="M222.07 132.86C234.83 136.12 249.01 132.98 259.01 123.42C268.87 114 272.22 100.72 269.07 88.69C269 88.75 268.43 89.28 268.37 89.35C256.39 125.45 231.6 126.72 219.41 124.91C214.64 124.2 209.79 125.68 206.36 128.94C198.1 136.83 132.02 200 123.76 207.9C120.59 210.92 118.95 215.13 119.4 219.38C119.89 223.88 119.29 230.67 114.32 238.68C114.35 238.8 114.52 239.38 114.81 240.43C112.95 242.21 98.01 256.47 96.14 258.25C94.66 257.87 93.83 257.66 93.66 257.62C77.87 265.07 64.48 258.28 63.82 257.93C63.93 258.03 64.02 258.14 64.13 258.24C79.08 272.38 103.18 272.33 118.07 258.11C128.08 248.53 131.37 234.99 127.97 222.8C128.31 222.48 130.01 220.84 133.08 217.92C138.56 212.68 165.94 186.52 215.23 139.42C219.48 135.34 221.76 133.16 222.07 132.86Z" id="c7VKI6oyf"></path><path d="M50.17 232.75C50.03 222.49 54.09 212.72 61.59 205.26C71.56 195.35 86.2 191.22 100.14 194.26C109.35 185.46 183 115.06 192.2 106.27C189.1 93.25 193.21 79.47 203.12 70.01C213.19 60.38 228.03 56.44 241.87 59.75C242.77 59.95 243.48 60.62 243.72 61.46C243.97 62.3 243.71 63.22 243.06 63.84C241.01 65.8 224.59 81.49 222.53 83.45C219.29 86.55 217.52 90.65 217.52 95.02C217.52 99.39 219.29 103.49 222.53 106.58C225.76 109.68 230.06 111.37 234.63 111.37C239.2 111.37 243.51 109.68 246.73 106.58C248.79 104.61 265.21 88.93 267.26 86.96C267.92 86.34 268.87 86.11 269.75 86.34C270.64 86.56 271.32 87.24 271.54 88.1C275 101.32 270.89 115.51 260.82 125.13C250.9 134.6 236.48 138.53 222.86 135.56C213.65 144.36 139.99 214.75 130.78 223.54C133.89 236.57 129.78 250.36 119.88 259.82C111.94 267.4 101.49 271.21 91.03 271.21C80.64 271.21 70.26 267.46 62.34 259.97C54.63 252.68 50.3 243.01 50.17 232.75ZM55.26 232.69C55.39 241.67 59.17 250.12 65.92 256.51C79.83 269.66 102.43 269.6 116.27 256.38C125.25 247.81 128.79 235.17 125.5 223.42C125.27 222.58 125.52 221.7 126.16 221.08C135.57 212.09 210.86 140.14 220.26 131.15C220.91 130.53 221.85 130.3 222.74 130.52C235.03 133.65 248.23 130.27 257.21 121.69C265.04 114.21 268.7 103.99 267.45 93.68C265.73 95.32 252.05 108.39 250.33 110.03C246.15 114.03 240.57 116.24 234.63 116.24C228.7 116.24 223.12 114.03 218.92 110.03C214.74 106.02 212.42 100.69 212.42 95.02C212.42 89.35 214.74 84.01 218.92 80.01C220.63 78.37 234.32 65.3 236.03 63.67C225.24 62.46 214.55 65.96 206.72 73.44C197.75 82.02 194.21 94.65 197.48 106.4C197.72 107.24 197.47 108.13 196.84 108.75C187.42 117.74 112.14 189.68 102.72 198.67C102.09 199.29 101.15 199.53 100.27 199.31C97.22 198.53 94.12 198.14 91.05 198.14C81.44 198.14 72.1 201.85 65.27 208.62C58.71 215.17 55.14 223.72 55.26 232.69ZM170.21 130.75L170.2 130.75L170.21 130.75ZM70 254.08C69.12 253.86 68.42 253.21 68.19 252.37C67.51 249.92 62.04 230.43 61.36 228C61.12 227.16 61.38 226.26 62.01 225.64C63.88 223.85 78.81 209.59 80.68 207.81C81.33 207.19 82.26 206.95 83.14 207.17C85.69 207.82 106.09 213.05 108.64 213.7C109.52 213.93 110.21 214.58 110.44 215.42C111.12 217.86 116.59 237.36 117.27 239.79C117.5 240.63 117.25 241.53 116.62 242.14C114.75 243.92 99.82 258.2 97.95 259.98C97.47 260.44 96.81 260.69 96.14 260.69C95.93 260.69 95.71 260.66 95.49 260.62C92.93 259.95 72.54 254.74 70 254.08ZM95.39 255.54L111.97 239.69L105.9 218.05L83.25 212.24L66.66 228.09L72.73 249.74L95.39 255.54Z" id="bbH7OLCOm"></path><path d="M185.31 200.77L200.57 186.17L135.51 124.01L120.25 138.59L126.6 144.66L141.47 158.87L185.31 200.77Z" id="b54JqMwJJC"></path><path d="M131.35 127.98L135.38 124.13L194.91 181.01L190.89 184.86L131.35 127.98Z" id="acQvOB8H9"></path><path d="M131.35 127.98L135.38 124.13L194.91 181.01L190.89 184.86L131.35 127.98Z" id="a5EVOZbpuM"></path><path d="M110.74 78.45L70.91 116.51L107.12 151.12C131.12 128.19 144.46 115.46 147.12 112.91C142.6 108.58 140.08 106.18 139.57 105.69C130.41 96.94 130.41 82.73 139.57 73.96C138.77 73.19 134.74 69.36 127.49 62.43C126.39 63.49 120.86 68.78 110.91 78.3L110.74 78.45Z" id="d49TBN40bx"></path><path d="M119.12 70.76C121.32 72.87 122.54 74.03 122.77 74.26C124.37 75.79 124.87 78.08 124.08 80.1C120 90.49 122.83 100.28 125.62 106.3C127.17 109.6 129.36 112.6 132.03 115.17C132.45 115.55 134.52 117.53 138.23 121.09C139.1 120.25 146.08 113.58 146.95 112.75C142.52 108.51 140.06 106.16 139.57 105.69C130.41 96.94 130.41 82.73 139.57 73.96C137.98 72.46 134.01 68.66 127.66 62.6C125.95 64.23 119.98 69.94 119.12 70.76Z" id="h1K7ErpJU3"></path><path d="M64.45 122.68L100.67 157.29L88.93 168.51L52.71 133.9L64.45 122.68Z" id="eyjNn8oOP"></path><path d="M76.95 122.28L101.42 145.67L94.97 151.84L70.49 128.45L76.95 122.28Z" id="dGoxUbNmv"></path><path d="M76.95 122.28L101.42 145.67L94.97 151.84L70.49 128.45L76.95 122.28Z" id="k4ex3B4Ql"></path><path d="M118.38 138.84C117.95 138.43 117.7 137.85 117.7 137.26C117.7 136.66 117.95 136.1 118.38 135.67C119.79 134.32 131.05 123.57 132.45 122.22C132.9 121.81 133.49 121.57 134.12 121.57C134.74 121.57 135.34 121.81 135.77 122.22C141.78 127.96 189.75 173.8 195.74 179.55C196.67 180.42 196.67 181.83 195.74 182.72C194.33 184.06 183.09 194.81 181.69 196.15C181.24 196.58 180.65 196.81 180.02 196.81C179.4 196.81 178.8 196.58 178.37 196.15C172.36 190.42 124.39 144.57 118.38 138.84ZM180.02 191.4L190.77 181.12L134.12 126.99L123.37 137.26L180.02 191.4Z" id="b2RfTwIjYI"></path><path d="M118.38 138.84C117.95 138.43 117.7 137.85 117.7 137.26C117.7 136.66 117.95 136.1 118.38 135.67C119.79 134.32 131.05 123.57 132.45 122.22C132.9 121.81 133.49 121.57 134.12 121.57C134.74 121.57 135.34 121.81 135.77 122.22C141.78 127.96 189.75 173.8 195.74 179.55C196.67 180.42 196.67 181.83 195.74 182.72C194.33 184.06 183.09 194.81 181.69 196.15C181.24 196.58 180.65 196.81 180.02 196.81C179.4 196.81 178.8 196.58 178.37 196.15C172.36 190.42 124.39 144.57 118.38 138.84ZM180.02 191.4L190.77 181.12L134.12 126.99L123.37 137.26L180.02 191.4Z" id="b5TduzOY0"></path><path d="M50.91 135.62C49.92 134.66 49.92 133.13 50.91 132.18C52.08 131.06 61.47 122.07 62.64 120.95C63.65 120.01 65.25 120.01 66.26 120.95C69.87 124.42 98.84 152.11 102.47 155.58C103.46 156.52 103.46 158.07 102.47 159.02C101.3 160.14 91.91 169.11 90.74 170.23C90.24 170.7 89.59 170.94 88.93 170.94C88.28 170.94 87.63 170.7 87.12 170.23C83.51 166.78 54.54 139.08 50.91 135.62ZM88.93 165.07L97.07 157.29L64.45 126.13L56.31 133.9L88.93 165.07Z" id="baOgUsIjN"></path><path d="M69.1 118.24C68.11 117.28 68.11 115.74 69.1 114.78C74.77 109.38 120.03 66.11 125.7 60.71C126.18 60.25 126.83 60 127.49 60C128.17 60 128.82 60.25 129.3 60.71C130.5 61.86 140.17 71.1 141.38 72.25C142.37 73.19 142.37 74.74 141.38 75.69C133.22 83.48 133.22 96.17 141.38 103.98C142.13 104.69 148.17 110.46 148.91 111.18C149.39 111.64 149.67 112.26 149.67 112.91C149.67 113.56 149.39 114.18 148.91 114.64C144.91 118.44 112.93 149.02 108.93 152.85C108.44 153.32 107.77 153.56 107.12 153.56C106.47 153.56 105.83 153.32 105.33 152.85C101.7 149.39 72.73 121.69 69.1 118.24ZM107.12 147.68C128.95 126.82 141.08 115.23 143.51 112.91C140.06 109.62 138.15 107.79 137.78 107.42C128.23 98.3 127.66 83.8 136.05 74.05C135.49 73.5 132.64 70.79 127.49 65.87C123.96 69.25 106.3 86.13 74.51 116.51L107.12 147.68ZM110.91 78.3L110.91 78.3L110.91 78.3Z" id="c2D7OqUfNF"></path><path d="M78.63 139.67C73.96 135.21 69.73 131.18 68.68 130.18C68.2 129.72 67.94 129.1 67.94 128.45C67.94 127.8 68.2 127.18 68.68 126.72C69.33 126.12 74.49 121.17 75.14 120.55C76.14 119.61 77.75 119.61 78.75 120.55C81.19 122.9 100.78 141.62 103.23 143.96C103.71 144.4 103.97 145.02 103.97 145.67C103.97 146.32 103.71 146.94 103.23 147.4C102.58 148.02 97.42 152.95 96.78 153.57C96.28 154.04 95.62 154.28 94.97 154.28C94.32 154.28 93.67 154.04 93.16 153.57C91.77 152.24 84.81 145.59 78.63 139.67ZM94.97 148.4L97.83 145.67L76.95 125.72L74.09 128.45L94.97 148.4Z" id="c5Hk6RZGO0"></path><path d="M190.78 185.29C190.77 185.29 190.75 185.3 190.72 185.33C198.3 192.57 258.92 250.52 266.5 257.77C266.55 257.74 266.56 257.71 266.56 257.71C271.43 253.07 271.43 245.47 266.56 240.84C254.94 229.73 214.24 190.84 208.43 185.29C203.57 180.64 195.63 180.64 190.78 185.29Z" id="bMRAcnkAl"></path><path d="M182.49 210.08C176.62 204.47 176.62 195.37 182.49 189.76C183.14 189.14 188.33 184.18 188.97 183.56C191.8 180.86 195.58 179.37 199.6 179.37C203.63 179.37 207.4 180.86 210.23 183.56C216.05 189.11 262.56 233.56 268.37 239.11C274.22 244.72 274.22 253.83 268.37 259.44C267.72 260.05 262.53 265.01 261.89 265.63C259.04 268.33 255.28 269.83 251.24 269.83C247.23 269.83 243.45 268.33 240.62 265.63C234.81 260.08 188.3 215.63 182.49 210.08ZM186.09 193.21C182.21 196.9 182.21 202.94 186.09 206.63C191.89 212.19 238.41 256.63 244.22 262.2C246.09 263.98 248.59 264.95 251.24 264.95C253.92 264.95 256.4 263.98 258.27 262.2C258.92 261.58 264.11 256.62 264.77 255.98C268.63 252.29 268.63 246.27 264.77 242.57C258.95 237 212.43 192.56 206.63 187C204.76 185.21 202.27 184.24 199.6 184.24C196.94 184.24 194.44 185.21 192.57 187C191.92 187.62 186.74 192.59 186.09 193.21Z" id="alD3HzP3S"></path><path d="M1255.04 -69.12C1255.04 -69.12 1255.04 -69.12 1255.04 -69.12C1255.04 -69.12 1255.04 -69.12 1255.04 -69.12C745.39 -69.12 462.24 -69.12 405.63 -69.12C405.63 -69.12 405.63 -69.12 405.63 -69.12C405.63 -69.12 405.63 -69.12 405.63 -69.12C405.63 -69.12 405.63 -69.12 405.63 -69.12C915.27 -69.12 1198.41 -69.12 1255.04 -69.12C1255.04 -69.12 1255.04 -69.12 1255.04 -69.12Z" id="g289CM6T6"></path><path d="M1255.04 -69.12C1255.04 -69.12 1255.04 -69.12 1255.04 -69.12C1255.04 -69.12 1255.04 -69.12 1255.04 -69.12C745.39 -69.12 462.24 -69.12 405.63 -69.12C405.63 -69.12 405.63 -69.12 405.63 -69.12C405.63 -69.12 405.63 -69.12 405.63 -69.12C405.63 -69.12 405.63 -69.12 405.63 -69.12C915.27 -69.12 1198.41 -69.12 1255.04 -69.12C1255.04 -69.12 1255.04 -69.12 1255.04 -69.12Z" id="frSQLPEZm"></path><path d="M27.99 107.04C20.13 121.11 15.76 128.94 14.89 130.5C-2.3 161 -2.3 164.7 14.89 192.52C15.77 193.95 20.2 201.09 28.19 213.98C28.19 244.75 28.19 261.84 28.19 265.25C28.19 324.25 27.77 323.25 48.45 323.25C61.33 323.25 67.06 318.21 67.06 306.82C67.06 297.77 62.77 293.09 54.38 293.09C53.86 293.09 51.28 293.09 46.6 293.09C46.6 290.02 46.6 274.72 46.6 247.16L46.6 201.24L34.94 181.8L23.28 162.35L34.94 142.91L46.6 123.47L46.6 77.54C46.6 49.99 46.6 34.68 46.6 31.62C50.78 31.62 53.1 31.62 53.56 31.62C64.61 31.62 71.15 16.19 64.61 5.47C61.33 0.1 33.92 0.1 30.64 5.47C29.01 8.16 28.19 24.92 28.19 58.1C28.17 61.37 28.11 77.67 27.99 107.04Z" id="bKEWFyBPL"></path><path d="M278.52 31.68C278.52 34.74 278.52 50.01 278.52 77.51L278.52 123.36L289.75 142.77L300.98 162.18L289.75 181.6L278.52 200.99L278.52 246.84C278.52 274.35 278.52 289.63 278.52 292.69C274.03 292.69 271.52 292.69 271.03 292.69C262.55 292.69 258.81 297.38 258.81 307.74C258.81 319.8 262.75 322.8 277.73 322.8C297.82 322.8 298.23 321.46 298.23 259.56C298.23 256.34 298.23 240.29 298.23 211.38C305.9 197.72 310.18 190.12 311.03 188.62C318.12 176.23 323.85 163.51 323.85 160.17C323.85 156.82 317.53 144.12 310.04 132.07C309.13 130.6 304.53 123.36 296.25 110.32C296.25 79.98 296.25 63.15 296.25 59.78C296.25 25.31 295.46 8.25 293.89 5.58C290.33 -0.45 265.7 0.22 261.96 6.91C254.86 18.62 259.6 31.68 271.03 31.68C271.52 31.68 274.03 31.68 278.52 31.68Z" id="aVFQLNqjJ"></path></defs><g><g><g><use xlink:href="#c7VKI6oyf" opacity="1" fill="#008063" fill-opacity="1"></use><g><use xlink:href="#c7VKI6oyf" opacity="1" fill-opacity="0" stroke="#000000" stroke-width="1" stroke-opacity="0"></use></g></g><g><use xlink:href="#bbH7OLCOm" opacity="1" fill="#006a52" fill-opacity="1"></use><g><use xlink:href="#bbH7OLCOm" opacity="1" fill-opacity="0" stroke="#000000" stroke-width="1" stroke-opacity="0"></use></g></g><g><use xlink:href="#b54JqMwJJC" opacity="1" fill="#000000" fill-opacity="0"></use><g><use xlink:href="#b54JqMwJJC" opacity="1" fill-opacity="0" stroke="#000000" stroke-width="1" stroke-opacity="0"></use></g></g><g><use xlink:href="#acQvOB8H9" opacity="1" fill="#008063" fill-opacity="1"></use><g><use xlink:href="#acQvOB8H9" opacity="1" fill-opacity="0" stroke="#000000" stroke-width="1" stroke-opacity="0"></use></g></g><g><use xlink:href="#a5EVOZbpuM" opacity="1" fill="#000000" fill-opacity="0"></use><g><use xlink:href="#a5EVOZbpuM" opacity="1" fill-opacity="0" stroke="#000000" stroke-width="1" stroke-opacity="0"></use></g></g><g><use xlink:href="#d49TBN40bx" opacity="1" fill="#000000" fill-opacity="0"></use><g><use xlink:href="#d49TBN40bx" opacity="1" fill-opacity="0" stroke="#000000" stroke-width="1" stroke-opacity="0"></use></g></g><g><use xlink:href="#h1K7ErpJU3" opacity="1" fill="#008063" fill-opacity="1"></use><g><use xlink:href="#h1K7ErpJU3" opacity="1" fill-opacity="0" stroke="#000000" stroke-width="1" stroke-opacity="0"></use></g></g><g><use xlink:href="#eyjNn8oOP" opacity="1" fill="#000000" fill-opacity="0"></use><g><use xlink:href="#eyjNn8oOP" opacity="1" fill-opacity="0" stroke="#000000" stroke-width="1" stroke-opacity="0"></use></g></g><g><use xlink:href="#dGoxUbNmv" opacity="1" fill="#008063" fill-opacity="1"></use><g><use xlink:href="#dGoxUbNmv" opacity="1" fill-opacity="0" stroke="#000000" stroke-width="1" stroke-opacity="0"></use></g></g><g><use xlink:href="#k4ex3B4Ql" opacity="1" fill="#000000" fill-opacity="0"></use><g><use xlink:href="#k4ex3B4Ql" opacity="1" fill-opacity="0" stroke="#000000" stroke-width="1" stroke-opacity="0"></use></g></g><g><use xlink:href="#b2RfTwIjYI" opacity="1" fill="#006a52" fill-opacity="1"></use><g><use xlink:href="#b2RfTwIjYI" opacity="1" fill-opacity="0" stroke="#000000" stroke-width="1" stroke-opacity="0"></use></g></g><g><use xlink:href="#b5TduzOY0" opacity="1" fill="#000000" fill-opacity="0"></use><g><use xlink:href="#b5TduzOY0" opacity="1" fill-opacity="0" stroke="#000000" stroke-width="1" stroke-opacity="0"></use></g></g><g><use xlink:href="#baOgUsIjN" opacity="1" fill="#008063" fill-opacity="1"></use><g><use xlink:href="#baOgUsIjN" opacity="1" fill-opacity="0" stroke="#000000" stroke-width="1" stroke-opacity="0"></use></g></g><g><use xlink:href="#c2D7OqUfNF" opacity="1" fill="#006a52" fill-opacity="1"></use><g><use xlink:href="#c2D7OqUfNF" opacity="1" fill-opacity="0" stroke="#000000" stroke-width="1" stroke-opacity="0"></use></g></g><g><use xlink:href="#c5Hk6RZGO0" opacity="1" fill="#006a52" fill-opacity="1"></use><g><use xlink:href="#c5Hk6RZGO0" opacity="1" fill-opacity="0" stroke="#000000" stroke-width="1" stroke-opacity="0"></use></g></g><g><use xlink:href="#bMRAcnkAl" opacity="1" fill="#008063" fill-opacity="1"></use><g><use xlink:href="#bMRAcnkAl" opacity="1" fill-opacity="0" stroke="#000000" stroke-width="1" stroke-opacity="0"></use></g></g><g><use xlink:href="#alD3HzP3S" opacity="1" fill="#006a52" fill-opacity="1"></use><g><use xlink:href="#alD3HzP3S" opacity="1" fill-opacity="0" stroke="#000000" stroke-width="1" stroke-opacity="0"></use></g></g><g><use xlink:href="#g289CM6T6" opacity="1" fill="#000000" fill-opacity="0"></use><g><use xlink:href="#g289CM6T6" opacity="1" fill-opacity="0" stroke="#000000" stroke-width="1" stroke-opacity="0"></use></g></g><g><use xlink:href="#frSQLPEZm" opacity="1" fill="#000000" fill-opacity="0"></use><g><use xlink:href="#frSQLPEZm" opacity="1" fill-opacity="0" stroke="#000000" stroke-width="1" stroke-opacity="0"></use></g></g><g><use xlink:href="#bKEWFyBPL" opacity="1" fill="#006a52" fill-opacity="1"></use><g><use xlink:href="#bKEWFyBPL" opacity="1" fill-opacity="0" stroke="#000000" stroke-width="1" stroke-opacity="0"></use></g></g><g><use xlink:href="#aVFQLNqjJ" opacity="1" fill="#006a52" fill-opacity="1"></use><g><use xlink:href="#aVFQLNqjJ" opacity="1" fill-opacity="0" stroke="#000000" stroke-width="1" stroke-opacity="0"></use></g></g></g></g></svg>