<?xml version="1.0" encoding="UTF-8" standalone="no"?>
<!DOCTYPE svg PUBLIC "-//W3C//DTD SVG 1.1//EN" "http://www.w3.org/Graphics/SVG/1.1/DTD/svg11.dtd">
<svg version="1.1" xmlns="http://www.w3.org/2000/svg" xmlns:xlink="http://www.w3.org/1999/xlink" preserveAspectRatio="xMidYMid meet" viewBox="0 0 216 179" width="216" height="179"><defs><path d="M138.22 64.18C114.73 93.42 101.67 109.66 99.06 112.91C91.72 110.47 83.54 112.91 77.87 120.26C69.63 130.92 69.81 147.61 78.26 158.01C86.71 168.41 100.34 168.38 108.76 157.91C114.41 150.87 116.27 140.9 114.35 131.93C119.67 125.31 162.23 72.36 167.55 65.74C174.76 68.14 182.77 65.82 188.43 58.78C194 51.85 195.89 42.09 194.12 33.22C192.96 34.67 183.67 46.22 182.51 47.67C178.17 53.07 171.13 53.07 166.79 47.67C162.45 42.27 162.45 33.51 166.79 28.11C167.95 26.66 177.24 15.11 178.4 13.67C171.27 11.46 163.42 13.81 157.85 20.74C152.19 27.78 150.33 37.75 152.26 46.72C150.39 49.05 145.71 54.87 138.22 64.18ZM96.36 158.03L81.95 153.22L78.08 135.29L88.63 122.16L103.05 126.97L106.91 144.9L96.36 158.03Z" id="h1yrtDyU94"></path><path d="M140.83 70.56C143.15 67.67 144.44 66.06 144.7 65.74C151.92 68.14 159.93 65.82 165.59 58.78C171.15 51.85 173.05 42.09 171.27 33.22C171.23 33.27 170.92 33.67 170.88 33.72C164.11 60.29 150.09 61.22 143.2 59.89C140.5 59.36 137.76 60.45 135.83 62.85C131.16 68.66 93.79 115.15 89.12 120.96C87.33 123.18 86.41 126.28 86.66 129.41C86.94 132.73 86.6 137.73 83.79 143.62C83.81 143.7 83.9 144.13 84.06 144.9L73.51 158.03C72.67 157.74 72.2 157.59 72.11 157.56C63.18 163.04 55.61 158.04 55.24 157.79C55.3 157.86 55.35 157.94 55.41 158.01C63.86 168.41 77.49 168.38 85.91 157.91C91.57 150.87 93.43 140.9 91.5 131.93C91.7 131.69 92.66 130.49 94.39 128.33L140.83 70.56Z" id="a5Ch0ai7i"></path><path d="M54.4 159.28C50.04 153.92 47.6 146.81 47.52 139.25C47.44 131.7 49.74 124.51 53.98 119.01C59.61 111.73 67.89 108.68 75.77 110.92C80.97 104.45 122.61 52.64 127.82 46.17C126.06 36.59 128.39 26.44 133.99 19.47C139.68 12.39 148.08 9.5 155.9 11.93C156.4 12.08 156.8 12.57 156.94 13.19C157.08 13.81 156.94 14.48 156.57 14.93C155.41 16.38 146.12 27.93 144.96 29.38C143.13 31.65 142.13 34.67 142.13 37.89C142.13 41.1 143.13 44.12 144.96 46.4C146.79 48.67 149.22 49.92 151.8 49.92C154.39 49.92 156.82 48.67 158.64 46.4C159.81 44.95 169.09 33.4 170.25 31.96C170.62 31.5 171.16 31.32 171.66 31.5C172.16 31.67 172.54 32.16 172.67 32.79C174.62 42.52 172.3 52.97 166.6 60.05C161 67.02 152.85 69.91 145.15 67.73C139.94 74.2 98.3 126 93.1 132.48C94.85 142.06 92.53 152.21 86.93 159.18C82.44 164.76 76.53 167.55 70.62 167.55C64.75 167.56 58.88 164.8 54.4 159.28ZM56.06 121.5C52.34 126.31 50.33 132.6 50.4 139.21C50.47 145.81 52.61 152.04 56.43 156.74C64.29 166.42 77.06 166.38 84.89 156.64C89.97 150.33 91.97 141.03 90.11 132.39C89.98 131.77 90.12 131.11 90.48 130.66C95.8 124.04 138.36 71.09 143.68 64.48C144.05 64.02 144.58 63.85 145.07 64.01C152.02 66.32 159.49 63.83 164.57 57.51C168.99 52.01 171.06 44.49 170.35 36.9C169.38 38.11 161.65 47.73 160.68 48.93C158.31 51.88 155.16 53.51 151.8 53.51C148.45 53.51 145.3 51.88 142.92 48.93C140.55 45.98 139.25 42.06 139.25 37.89C139.25 33.71 140.55 29.79 142.92 26.84C143.89 25.64 151.63 16.02 152.59 14.81C146.49 13.92 140.45 16.5 136.03 22.01C130.95 28.32 128.95 37.61 130.81 46.26C130.94 46.88 130.8 47.54 130.43 47.99C125.11 54.61 82.55 107.56 77.23 114.17C76.87 114.63 76.34 114.8 75.84 114.64C74.12 114.07 72.37 113.79 70.63 113.79C65.2 113.79 59.92 116.51 56.06 121.5ZM115.38 64.18L115.38 64.18L115.38 64.18ZM73.14 159.76C71.7 159.28 60.17 155.43 58.73 154.95C58.23 154.79 57.84 154.3 57.71 153.68C57.32 151.89 54.23 137.55 53.85 135.75C53.71 135.13 53.85 134.47 54.22 134.02C55.27 132.71 63.71 122.21 64.77 120.89C65.13 120.44 65.66 120.26 66.16 120.43C67.6 120.91 79.13 124.75 80.58 125.23C81.07 125.4 81.46 125.88 81.59 126.5C81.98 128.3 85.07 142.64 85.46 144.43C85.59 145.05 85.45 145.71 85.08 146.17C84.03 147.48 75.59 157.98 74.53 159.29C74.26 159.63 73.89 159.82 73.51 159.82C73.39 159.82 73.26 159.8 73.14 159.76ZM60.28 151.76L73.08 156.03L82.46 144.36L79.03 128.43L66.22 124.16L56.84 135.82L60.28 151.76Z" id="a1LjhaT75M"></path><path d="M99.14 84.88L123.92 115.71L132.55 104.98L95.77 59.22L87.14 69.95L90.73 74.41L99.14 84.88Z" id="aFmbPKMCd"></path><path d="M127.07 104.01L93.42 62.14L95.69 59.31L129.35 101.18L127.07 104.01Z" id="dFn4Hpnrn"></path><path d="M81.85 25.58L81.76 25.7L59.24 53.7L79.72 79.18L102.33 51.05C99.77 47.87 98.35 46.1 98.06 45.74C92.88 39.3 92.88 28.84 98.06 22.39C97.61 21.83 95.33 19 91.24 13.9L81.85 25.58Z" id="c5pXXwbtc"></path><path d="M91.33 14.02L86.5 20.03C87.74 21.58 88.43 22.44 88.57 22.61C89.47 23.73 89.75 25.41 89.3 26.91C87 34.55 88.59 41.76 90.18 46.19C91.05 48.62 92.29 50.83 93.8 52.71C94.04 53 95.2 54.45 97.31 57.07L102.23 50.93C99.73 47.82 98.34 46.09 98.06 45.74C92.88 39.3 92.88 28.84 98.06 22.39C97.17 21.28 94.92 18.49 91.33 14.02Z" id="b881NFySd"></path><path d="M48.96 66.5L55.6 58.24L76.07 83.72L69.44 91.97L48.96 66.5Z" id="aOYY7gYVp"></path><path d="M59.01 62.49L62.66 57.95L76.5 75.17L72.85 79.71L59.01 62.49Z" id="eQJGtInkP"></path><path d="M119.99 112.32C116.6 108.1 89.48 74.36 86.09 70.14C85.84 69.83 85.7 69.41 85.7 68.97C85.7 68.53 85.84 68.11 86.09 67.8C86.88 66.81 93.24 58.9 94.04 57.91C94.29 57.6 94.63 57.43 94.98 57.43C95.33 57.43 95.67 57.6 95.92 57.91C99.31 62.13 126.43 95.87 129.82 100.09C130.34 100.74 130.34 101.78 129.82 102.43C129.03 103.42 122.66 111.33 121.87 112.32C121.62 112.63 121.28 112.8 120.93 112.8C120.58 112.8 120.24 112.63 119.99 112.32ZM88.9 68.97L120.93 108.81L127 101.26L94.98 61.42L88.9 68.97Z" id="c5hiIA8TWe"></path><path d="M68.42 93.24C66.37 90.7 49.99 70.32 47.94 67.77C47.38 67.07 47.38 65.93 47.94 65.23C48.6 64.41 53.91 57.8 54.58 56.98C55.14 56.28 56.05 56.28 56.61 56.98C58.66 59.52 75.04 79.9 77.09 82.45C77.65 83.15 77.65 84.29 77.09 84.99C76.43 85.81 71.12 92.42 70.45 93.24C70.17 93.59 69.8 93.77 69.44 93.77C69.07 93.77 68.7 93.59 68.42 93.24ZM51 66.5L69.44 89.44L74.03 83.72L55.6 60.78L51 66.5Z" id="atx4yFrsC"></path><path d="M78.7 80.45C76.65 77.9 60.27 57.52 58.23 54.97C57.66 54.27 57.66 53.14 58.23 52.44C61.43 48.46 87.02 16.61 90.22 12.63C90.49 12.3 90.86 12.11 91.24 12.11C91.62 12.11 91.99 12.3 92.26 12.63C92.94 13.48 98.4 20.28 99.08 21.13C99.65 21.83 99.65 22.96 99.08 23.66C94.47 29.4 94.47 38.74 99.08 44.48C99.51 45.01 102.92 49.25 103.35 49.78C103.62 50.12 103.77 50.58 103.77 51.05C103.77 51.53 103.62 51.98 103.35 52.32C101.09 55.13 83 77.63 80.74 80.45C80.46 80.8 80.09 80.97 79.72 80.97C79.35 80.97 78.98 80.8 78.7 80.45ZM61.28 53.7L79.72 76.64L100.29 51.05C98.34 48.63 97.26 47.28 97.05 47.01C91.65 40.3 91.33 29.64 96.08 22.45C95.75 22.05 94.14 20.05 91.24 16.44L61.28 53.7ZM81.85 25.58L81.86 25.58L81.85 25.58Z" id="eQJeUMUTl"></path><path d="M71.83 80.98C71.04 80 67.1 75.1 63.61 70.75C60.97 67.47 58.58 64.5 57.99 63.76C57.72 63.42 57.57 62.97 57.57 62.49C57.57 62.02 57.72 61.56 57.99 61.22C58.35 60.77 61.27 57.14 61.64 56.68C62.2 55.98 63.11 55.98 63.68 56.68C65.06 58.41 76.13 72.18 77.52 73.9C77.79 74.24 77.94 74.69 77.94 75.17C77.94 75.64 77.79 76.1 77.52 76.44C77.15 76.89 74.23 80.52 73.87 80.98C73.59 81.33 73.22 81.5 72.85 81.5C72.48 81.5 72.11 81.33 71.83 80.98ZM61.05 62.49L72.85 77.17L74.46 75.17L62.66 60.49L61.05 62.49Z" id="cdTVlWxNL"></path><path d="M166.01 162.38C163.24 165.77 158.75 165.72 156.03 162.28C152.76 158.16 126.68 125.19 123.42 121.07C120.69 117.63 120.73 112.04 123.49 108.66C123.86 108.2 126.82 104.58 127.19 104.13C129.96 100.74 134.45 100.78 137.17 104.22C140.43 108.34 166.52 141.31 169.78 145.43C172.51 148.87 172.47 154.46 169.7 157.85C168.96 158.75 166.38 161.93 166.01 162.38Z" id="abEOr5iQx"></path><path d="M136.99 104.32C134.25 100.9 129.75 100.9 127.01 104.32C127.01 104.32 127 104.33 126.98 104.36L169.82 157.67C169.84 157.64 169.86 157.63 169.86 157.62C172.6 154.21 172.6 148.62 169.86 145.21C163.28 137.03 140.28 108.4 136.99 104.32Z" id="aiJf0kMLo"></path><path d="M155.19 163.46C151.9 159.37 125.61 126.65 122.32 122.57C119.01 118.44 119.01 111.74 122.32 107.61C122.69 107.16 125.63 103.5 125.99 103.05C127.59 101.06 129.73 99.96 132 99.96C134.28 99.96 136.41 101.06 138.01 103.05C141.3 107.14 167.59 139.85 170.88 143.94C174.19 148.06 174.19 154.77 170.88 158.89C170.51 159.35 167.57 163 167.21 163.46C165.61 165.45 163.47 166.54 161.2 166.54C158.92 166.54 156.79 165.45 155.19 163.46ZM128.03 105.58C127.66 106.04 124.73 109.69 124.36 110.15C122.17 112.87 122.17 117.31 124.36 120.03C127.65 124.12 153.94 156.83 157.23 160.92C158.28 162.23 159.69 162.96 161.2 162.96C162.7 162.96 164.11 162.23 165.17 160.92C165.54 160.47 168.47 156.81 168.84 156.36C171.03 153.63 171.03 149.2 168.84 146.47C165.55 142.39 139.26 109.67 135.97 105.58C134.92 104.27 133.51 103.55 132 103.55C130.5 103.55 129.08 104.27 128.03 105.58Z" id="mPOUxbHF1"></path><path d="M707.63 -60.45C707.63 -60.45 707.63 -60.45 707.63 -60.45C707.63 -60.45 707.63 -60.45 707.63 -60.45C707.63 -60.45 707.63 -60.45 707.63 -60.45C377.63 -60.45 194.29 -60.45 157.63 -60.45C157.63 -60.45 157.63 -60.45 157.63 -60.45C157.63 -60.45 157.63 -60.45 157.63 -60.45C157.63 -60.45 157.63 -60.45 157.63 -60.45C487.63 -60.45 670.96 -60.45 707.63 -60.45Z" id="bNrDyr1cP"></path><path d="M16.51 34.92C16.5 36.63 16.46 45.14 16.39 60.46C11.95 67.81 9.48 71.89 8.99 72.7C-0.73 88.62 -0.73 90.54 8.99 105.06C9.49 105.81 11.99 109.54 16.51 116.25C16.51 132.31 16.51 141.23 16.51 143.01C16.51 173.8 16.28 173.27 27.96 173.27C35.25 173.27 38.49 170.65 38.49 164.7C38.49 159.98 36.06 157.53 31.31 157.53C31.02 157.53 29.56 157.53 26.92 157.53L26.92 133.57L26.92 109.61L20.32 99.46L13.73 89.32L20.32 79.17L26.92 69.03L26.92 45.07L26.92 21.11C29.28 21.11 30.59 21.11 30.85 21.11C37.1 21.11 40.8 13.06 37.1 7.46C35.25 4.67 19.75 4.67 17.89 7.46C16.97 8.86 16.51 17.61 16.51 34.92Z" id="a5pNrhmn8P"></path><path d="M185.1 17.71C185.38 17.71 186.79 17.71 189.33 17.71L189.33 42.88L189.33 68.04L195.68 78.7L202.03 89.35L195.68 100L189.33 110.66L189.33 135.82L189.33 160.99C186.79 160.99 185.38 160.99 185.1 160.99C180.31 160.99 178.19 163.56 178.19 169.25C178.19 175.86 180.42 177.52 188.89 177.52C200.25 177.52 200.47 176.78 200.47 142.8C200.47 141.04 200.47 132.22 200.47 116.35C204.82 108.86 207.23 104.69 207.71 103.86C211.72 97.06 214.96 90.08 214.96 88.25C214.96 86.41 211.39 79.43 207.16 72.82C206.64 72.02 204.04 68.04 199.36 60.88C199.36 44.24 199.36 34.99 199.36 33.14C199.36 14.22 198.91 4.86 198.02 3.39C196.02 0.08 182.09 0.45 179.97 4.12C175.96 10.55 178.64 17.71 185.1 17.71Z" id="a4Iox9Vi0T"></path></defs><g><g><g><g><use xlink:href="#h1yrtDyU94" opacity="1" fill-opacity="0" stroke="#000000" stroke-width="1" stroke-opacity="0"></use></g></g><g><use xlink:href="#a5Ch0ai7i" opacity="1" fill="#008063" fill-opacity="1"></use><g><use xlink:href="#a5Ch0ai7i" opacity="1" fill-opacity="0" stroke="#000000" stroke-width="1" stroke-opacity="0"></use></g></g><g><use xlink:href="#a1LjhaT75M" opacity="1" fill="#006a52" fill-opacity="1"></use><g><use xlink:href="#a1LjhaT75M" opacity="1" fill-opacity="0" stroke="#000000" stroke-width="1" stroke-opacity="0"></use></g></g><g><g><use xlink:href="#aFmbPKMCd" opacity="1" fill-opacity="0" stroke="#000000" stroke-width="1" stroke-opacity="0"></use></g></g><g><use xlink:href="#dFn4Hpnrn" opacity="1" fill="#008063" fill-opacity="1"></use><g><use xlink:href="#dFn4Hpnrn" opacity="1" fill-opacity="0" stroke="#000000" stroke-width="1" stroke-opacity="0"></use></g></g><g><g><use xlink:href="#c5pXXwbtc" opacity="1" fill-opacity="0" stroke="#000000" stroke-width="1" stroke-opacity="0"></use></g></g><g><use xlink:href="#b881NFySd" opacity="1" fill="#008063" fill-opacity="1"></use><g><use xlink:href="#b881NFySd" opacity="1" fill-opacity="0" stroke="#000000" stroke-width="1" stroke-opacity="0"></use></g></g><g><g><use xlink:href="#aOYY7gYVp" opacity="1" fill-opacity="0" stroke="#000000" stroke-width="1" stroke-opacity="0"></use></g></g><g><use xlink:href="#eQJGtInkP" opacity="1" fill="#008063" fill-opacity="1"></use><g><use xlink:href="#eQJGtInkP" opacity="1" fill-opacity="0" stroke="#000000" stroke-width="1" stroke-opacity="0"></use></g></g><g><use xlink:href="#c5hiIA8TWe" opacity="1" fill="#006a52" fill-opacity="1"></use><g><use xlink:href="#c5hiIA8TWe" opacity="1" fill-opacity="0" stroke="#000000" stroke-width="1" stroke-opacity="0"></use></g></g><g><use xlink:href="#atx4yFrsC" opacity="1" fill="#008063" fill-opacity="1"></use><g><use xlink:href="#atx4yFrsC" opacity="1" fill-opacity="0" stroke="#000000" stroke-width="1" stroke-opacity="0"></use></g></g><g><use xlink:href="#eQJeUMUTl" opacity="1" fill="#006a52" fill-opacity="1"></use><g><use xlink:href="#eQJeUMUTl" opacity="1" fill-opacity="0" stroke="#000000" stroke-width="1" stroke-opacity="0"></use></g></g><g><use xlink:href="#cdTVlWxNL" opacity="1" fill="#006a52" fill-opacity="1"></use><g><use xlink:href="#cdTVlWxNL" opacity="1" fill-opacity="0" stroke="#000000" stroke-width="1" stroke-opacity="0"></use></g></g><g><g><use xlink:href="#abEOr5iQx" opacity="1" fill-opacity="0" stroke="#000000" stroke-width="1" stroke-opacity="0"></use></g></g><g><use xlink:href="#aiJf0kMLo" opacity="1" fill="#008063" fill-opacity="1"></use><g><use xlink:href="#aiJf0kMLo" opacity="1" fill-opacity="0" stroke="#000000" stroke-width="1" stroke-opacity="0"></use></g></g><g><use xlink:href="#mPOUxbHF1" opacity="1" fill="#006a52" fill-opacity="1"></use><g><use xlink:href="#mPOUxbHF1" opacity="1" fill-opacity="0" stroke="#000000" stroke-width="1" stroke-opacity="0"></use></g></g><g><use xlink:href="#bNrDyr1cP" opacity="1" fill="#000000" fill-opacity="0"></use><g><use xlink:href="#bNrDyr1cP" opacity="1" fill-opacity="0" stroke="#000000" stroke-width="1" stroke-opacity="0"></use></g></g><g><use xlink:href="#a5pNrhmn8P" opacity="1" fill="#006a52" fill-opacity="1"></use><g><use xlink:href="#a5pNrhmn8P" opacity="1" fill-opacity="0" stroke="#000000" stroke-width="1" stroke-opacity="0"></use></g></g><g><use xlink:href="#a4Iox9Vi0T" opacity="1" fill="#006a52" fill-opacity="1"></use><g><use xlink:href="#a4Iox9Vi0T" opacity="1" fill-opacity="0" stroke="#000000" stroke-width="1" stroke-opacity="0"></use></g></g></g></g></svg>